<?xml version="1.0" standalone="no"?>
<!DOCTYPE svg PUBLIC "-//W3C//DTD SVG 20010904//EN"
 "http://www.w3.org/TR/2001/REC-SVG-20010904/DTD/svg10.dtd">
<svg version="1.0" xmlns="http://www.w3.org/2000/svg"
 width="512.000000pt" height="512.000000pt" viewBox="0 0 512.000000 512.000000"
 preserveAspectRatio="xMidYMid meet">
<metadata>
Created by potrace 1.14, written by Peter Selinger 2001-2017
</metadata>
<g transform="translate(0.000000,512.000000) scale(0.100000,-0.100000)"
fill="#000000" stroke="none">
<path d="M0 2560 l0 -2560 2560 0 2560 0 0 2560 0 2560 -2560 0 -2560 0 0
-2560z m2304 1688 c15 -40 140 -395 280 -788 140 -393 319 -897 399 -1120 79
-223 170 -478 202 -568 32 -89 60 -161 61 -159 2 2 -12 50 -32 108 -19 57 -41
131 -48 164 -7 33 -30 123 -51 200 -39 149 -64 241 -140 530 -26 99 -63 236
-82 305 -20 69 -39 163 -43 210 -5 47 -9 334 -9 638 l-1 552 345 0 345 0 0
-1761 0 -1762 -62 7 c-247 27 -362 36 -496 42 -91 4 -155 12 -160 18 -5 6
-122 335 -262 731 -139 396 -259 734 -266 750 -8 17 -77 208 -154 425 -77 216
-143 396 -147 399 -3 3 -4 -1 -1 -9 20 -56 61 -201 83 -290 81 -334 187 -738
197 -755 9 -15 13 -178 16 -637 l4 -617 -33 -5 c-19 -3 -90 -8 -159 -11 -113
-6 -330 -25 -452 -41 l-48 -7 0 1762 0 1761 344 0 344 0 26 -72z"/>
</g>
</svg>
